<svg width="62" height="28" viewBox="0 0 62 28" fill="none" xmlns="http://www.w3.org/2000/svg">
<rect x="2" y="2" width="58" height="24.0415" fill="#EC111A"/>
<path d="M3.95361 4.4043V23.6375H7.40957L7.55983 15.0727L9.06242 23.6375H11.0158L12.5184 15.0727V23.6375H19.1298L19.5806 20.7825H22.2852L22.736 23.6375H29.4977V17.4768H30.249L31.7515 23.6375H35.2075L33.1039 16.425C34.2881 15.2355 34.8475 14.4378 35.2075 12.2178L37.1609 23.6375H41.3681L44.0728 6.65818V23.6375H50.6842V20.1815H47.5287V15.824H50.6842V12.2178H47.5287V8.01051H50.6842V4.4043H40.9173L39.2645 16.7255L37.9122 4.4043H34.0054L34.3059 7.25922C33.7049 5.75663 31.7515 4.4043 30.5495 4.4043H25.8914V21.2333L23.4873 4.4043H18.679L16.1246 21.8343V4.4043H11.6168L9.96398 13.8706L8.31113 4.4043H3.95361Z" fill="white"/>
<path d="M51.2852 23.6375V4.4043H54.7412V20.3318H57.7464V23.6375H51.2852Z" fill="white"/>
<path d="M21.0831 9.66333L20.0312 17.3265H22.1349L21.0831 9.66333Z" fill="#EC111A"/>
<path d="M29.4976 13.7203V7.70996C30.8815 8.1469 31.7515 8.91203 31.7515 10.8654C31.7515 12.2177 30.9046 13.53 29.4976 13.7203Z" fill="#EC111A"/>
</svg>
